# xmcd
#
# Track frame offsets: 
#        150
#        11760
#        21392
#        37765
#        49382
#        58347
#        66495
#        76987
#        95212
#        107470
#        119487
#        133857
#
# Disc length: 1992 seconds
#
# Revision: 0
# Processed by: cddbd v1.5.2PL0 Copyright (c) Steve Scherf et al.
# Submitted via: ExactAudioCopyFreeDBPlugin 1.0
#
DISCID=ae07c60c
DTITLE=Per Fält - Goda Vänners Lag
DYEAR=1982
DGENRE=Bluegrass
TTITLE0=Per Fält, Thomas Haglund, Bert Viklund, Hans Hedström, Floda L
TTITLE0=omaeus - Big Country
TTITLE1=Per Fält, Jörgen Thölin, Olof and Anders Ternesten, Bengt Nestor
TTITLE1=Texas Quickstep
TTITLE2=Per Fält, Thomas Haglund, Bert Viklund, Hans Hedström, Floda L
TTITLE2=omaeus - First Day In Town, Frosty Morning
TTITLE3=Per Fält, Thomas Haglund, Bert Viklund, Hans Hedström, Floda L
TTITLE3=omaeus - Arkansas Traveler
TTITLE4=Per Fält, Thomas Haglund, Bert Viklund, Hans Hedström, Floda L
TTITLE4=omaeus - Fireball
TTITLE5=Per Fält, Jörgen Thölin - Whiskey Before Breakfast
TTITLE6=Per Fält, Thomas Haglund, Bert Viklund, Hans Hedström, Floda L
TTITLE6=omaeus - Big Mon
TTITLE7=Per Fält, Magnus Norrman, Bert Lundin, Hans Hedström, Bert Vik
TTITLE7=lund, Floda Lomaeus - Western Country, Cricket On The Hearth
TTITLE8=Per Fält, Jörgen Thölin, Olof and Anders Ternesten, Bengt Nestor
TTITLE8=The Girl I Left Behind
TTITLE9=Per Fält, Thomas Haglund, Bert Viklund, Hans Hedström, Floda L
TTITLE9=omaeus - Lonesome Fiddle Blues
TTITLE10=Per Fält, Thomas Haglund, Bert Viklund, Hans Hedström, Floda 
TTITLE10=Lomaeus - Dixie Hoedown
TTITLE11=Per Fält, Jörgen Thölin, Olof and Anders Ternesten, Bengt Nesto
TTITLE11=r - Jerusalem Ridge
EXTD=
EXTT0=
EXTT1=
EXTT2=
EXTT3=
EXTT4=
EXTT5=
EXTT6=
EXTT7=
EXTT8=
EXTT9=
EXTT10=
EXTT11=
PLAYORDER=
